# xmcd
#
# Track frame offsets:
#	150
#	18066
#	33044
#	50897
#	66204
#	81602
#	98720
#	111166
#	127179
#	139706
#	155604
#	172543
#
# Disc length: 2501 seconds
#
# Revision: 1
# Processed by: cddbd v1.5.1PL0 Copyright (c) Steve Scherf et al.
# Submitted via: audiograbber 1.83.01
#
DISCID=9a09c30c
DTITLE=John James Newman - Little Whispers
DYEAR=1900
DGENRE=
TTITLE0=Take It Away
TTITLE1=I Am Amazed
TTITLE2=Miss Out
TTITLE3=How She Dances
TTITLE4=Valentina
TTITLE5=Oh My Love
TTITLE6=Tell Me A Story
TTITLE7=Look At Us Now
TTITLE8=Memories Sold Out Songs
TTITLE9=Lazy Days
TTITLE10=Mystified
TTITLE11=Little Whispers
EXTD=
EXTT0=
EXTT1=
EXTT2=
EXTT3=
EXTT4=
EXTT5=
EXTT6=
EXTT7=
EXTT8=
EXTT9=
EXTT10=
EXTT11=
PLAYORDER=
